# xmcd
#
# Track frame offsets:
#	150
#	16235
#	39992
#	59632
#	69902
#	81847
#	86982
#	119542
#
# Disc length: 1684 seconds
#
# Revision: 2
# Processed by: cddbd v1.5.1PL2 Copyright (c) Steve Scherf et al.
# Submitted via: CDmax 2.0
#
DISCID=66069208
DTITLE=Various Artist - Chicken Soup for the Country Soul
DYEAR=1900
DGENRE=Country
TTITLE0=Porter Wagoner - In the Shade of the Family Tree
TTITLE1=Bill Anderson - Love Goes a Long Way
TTITLE2=Audrey Wiggins - The Dream
TTITLE3=Emilio - It's Not the End of the World
TTITLE4=Kippi Brannon - Daddy's Little Girl
TTITLE5=Ty Herndon - Living in a Moment
TTITLE6=Gary Chapman - The Chain
TTITLE7=Outro
EXTD=
EXTT0=
EXTT1=
EXTT2=
EXTT3=
EXTT4=
EXTT5=
EXTT6=
EXTT7=
PLAYORDER=
